<svg width="21" height="19" viewBox="0 0 21 19" fill="none" xmlns="http://www.w3.org/2000/svg">
<path d="M10.3274 19C13.0531 19 15.6672 17.9991 17.5946 16.2175C19.5219 14.4359 20.6047 12.0196 20.6047 9.5C20.6047 6.98044 19.5219 4.56408 17.5946 2.78249C15.6672 1.00089 13.0531 0 10.3274 0C7.60167 0 4.98759 1.00089 3.06021 2.78249C1.13284 4.56408 0.0500488 6.98044 0.0500488 9.5C0.0500488 12.0196 1.13284 14.4359 3.06021 16.2175C4.98759 17.9991 7.60167 19 10.3274 19ZM3.01763 6.22606C2.97018 6.05097 2.96653 5.86817 3.00697 5.69158C3.04741 5.51499 3.13087 5.34924 3.25101 5.20693C3.37115 5.06463 3.5248 4.94951 3.70029 4.87034C3.87578 4.79116 4.06848 4.75 4.26376 4.75H7.75805C8.09877 4.75 8.42553 4.87511 8.66645 5.09781C8.90737 5.32051 9.04272 5.62256 9.04272 5.9375V6.07525C9.46346 5.98211 9.89476 5.93587 10.3274 5.9375C10.777 5.9375 11.2138 5.985 11.6121 6.07525V5.9375C11.6121 5.62256 11.7474 5.32051 11.9883 5.09781C12.2292 4.87511 12.556 4.75 12.8967 4.75H16.391C16.5863 4.75 16.779 4.79116 16.9545 4.87034C17.13 4.94951 17.2836 5.06463 17.4038 5.20693C17.5239 5.34924 17.6074 5.51499 17.6478 5.69158C17.6882 5.86817 17.6846 6.05097 17.6371 6.22606L17.2376 7.70094C17.0987 8.21474 16.7779 8.67088 16.3264 8.99685C15.8748 9.32282 15.3183 9.49992 14.7454 9.5H14.1814C13.5357 9.50015 12.9135 9.27553 12.4389 8.87086C11.9642 8.46619 11.6717 7.91114 11.6198 7.31619C11.204 7.18459 10.7668 7.11992 10.3274 7.125C9.82252 7.125 9.37674 7.201 9.03501 7.31619C8.98303 7.91114 8.6906 8.46619 8.21592 8.87086C7.74124 9.27553 7.11912 9.50015 6.47339 9.5H5.9107C5.33775 9.49992 4.78127 9.32282 4.3297 8.99685C3.87813 8.67088 3.55739 8.21474 3.41845 7.70094L3.01763 6.22606ZM6.43356 11.5781C6.82799 12.2101 7.39553 12.7349 8.07909 13.0997C8.76264 13.4645 9.53808 13.6565 10.3274 13.6562C11.1169 13.6567 11.8926 13.4648 12.5764 13.1C13.2602 12.7352 13.828 12.2103 14.2225 11.5781C14.2644 11.5101 14.3204 11.4503 14.3873 11.4023C14.4543 11.3544 14.5308 11.3191 14.6126 11.2986C14.6943 11.2781 14.7797 11.2727 14.8637 11.2828C14.9477 11.2929 15.0287 11.3182 15.1021 11.3574C15.1754 11.3965 15.2397 11.4487 15.2911 11.5109C15.3426 11.5731 15.3802 11.6441 15.4019 11.7198C15.4235 11.7955 15.4288 11.8744 15.4173 11.952C15.4058 12.0296 15.3779 12.1043 15.335 12.1719C14.8277 12.9845 14.0978 13.6594 13.2187 14.1284C12.3397 14.5975 11.3424 14.8442 10.3274 14.8438C9.31237 14.8442 8.31513 14.5975 7.43604 14.1284C6.55696 13.6594 5.82704 12.9845 5.31976 12.1719C5.23592 12.0356 5.21381 11.8742 5.25825 11.7228C5.30269 11.5715 5.41008 11.4426 5.55697 11.3642C5.70387 11.2858 5.87834 11.2643 6.04233 11.3044C6.20631 11.3445 6.34649 11.4429 6.43228 11.5781H6.43356Z" fill="#578D12"/>
</svg>
